Coordinates
version=1
nRows=13
nColumns=40
inDegrees=yes
endheader
time	pelvis_tilt	pelvis_list	pelvis_rotation	pelvis_tx	pelvis_ty	pelvis_tz	hip_flexion_r	hip_adduction_r	hip_rotation_r	knee_angle_r	knee_angle_r_beta	ankle_angle_r	subtalar_angle_r	mtp_angle_r	hip_flexion_l	hip_adduction_l	hip_rotation_l	knee_angle_l	knee_angle_l_beta	ankle_angle_l	subtalar_angle_l	mtp_angle_l	lumbar_extension	lumbar_bending	lumbar_rotation	arm_flex_r	arm_add_r	arm_rot_r	elbow_flex_r	pro_sup_r	wrist_flex_r	wrist_dev_r	arm_flex_l	arm_add_l	arm_rot_l	elbow_flex_l	pro_sup_l	wrist_flex_l	wrist_dev_l
1760625395.47394109	      0.83616115	     -2.10606689	     -0.00994053	      0.16473704	      0.85725454	      0.00202708	     80.00000000	     -7.00000000	      0.00000000	     80.00000000	      1.39626340	      0.00000000	      0.00000000	      0.00000000	     80.00000000	     -7.00000000	      0.00000000	     80.00000000	      1.39626340	      0.00000000	      0.00000000	      0.00000000	     -6.77314184	     -0.36307769	      2.19916511	      3.37597846	     -5.81131333	     18.16868217	      0.00000000	      0.00000000	     -6.55289283	    -16.89200098	      5.42183679	     -5.92403098	     15.77980265	      0.00000000	     10.99172085	     -5.15196159	     -7.75490943
1760625395.48394108	      0.81869822	     -2.09555696	     -0.00244984	      0.16459709	      0.85734159	      0.00194969	     80.00000000	     -7.00000000	      0.00000000	     80.00000000	      1.39626340	      0.00000000	      0.00000000	      0.00000000	     80.00000000	     -7.00000000	      0.00000000	     80.00000000	      1.39626340	      0.00000000	      0.00000000	      0.00000000	     -6.79276126	     -0.36528232	      2.20721001	      3.37636559	     -5.81779404	     18.16811957	      0.00000000	      0.00000000	     -6.55572476	    -16.89393228	      5.40387951	     -5.93381697	     15.77684553	      0.00000000	     10.98854698	     -5.15606641	     -7.75710890
1760625395.49394107	      0.81112444	     -2.08186326	     -0.00861234	      0.16452433	      0.85728030	      0.00191224	     80.00000000	     -7.00000000	      0.00000000	     80.00000000	      1.39626340	      0.00000000	      0.00000000	      0.00000000	     80.00000000	     -7.00000000	      0.00000000	     80.00000000	      1.39626340	      0.00000000	      0.00000000	      0.00000000	     -6.80837577	     -0.38562575	      2.19950182	      3.37780872	     -5.84523564	     18.16793195	      0.00000000	      0.00000000	     -6.56386653	    -16.89981583	      5.40891936	     -5.96928370	     15.77088371	      0.00000000	     10.97990684	     -5.16777226	     -7.76418737
1760625395.50394106	      0.80987530	     -2.08295529	     -0.00835833	      0.16444672	      0.85733437	      0.00183772	     80.00000000	     -7.00000000	      0.00000000	     80.00000000	      1.39626340	      0.00000000	      0.00000000	      0.00000000	     80.00000000	     -7.00000000	      0.00000000	     80.00000000	      1.39626340	      0.00000000	      0.00000000	      0.00000000	     -6.80999407	     -0.38820429	      2.19989808	      3.37810325	     -5.84620939	     18.16793174	      0.00000000	      0.00000000	     -6.56429230	    -16.90011526	      5.40749088	     -5.97055778	     15.77044504	      0.00000000	     10.97938327	     -5.16839820	     -7.76452250
1760625395.51394105	      0.79425617	     -2.07071471	     -0.00595154	      0.16440508	      0.85725105	      0.00186280	     80.00000000	     -7.00000000	      0.00000000	     80.00000000	      1.39626340	      0.00000000	      0.00000000	      0.00000000	     80.00000000	     -7.00000000	      0.00000000	     80.00000000	      1.39626340	      0.00000000	      0.00000000	      0.00000000	     -6.83221729	     -0.40486839	      2.20025393	      3.37500779	     -5.86213152	     18.16824330	      0.00000000	      0.00000000	     -6.57136637	    -16.90543876	      5.40452640	     -5.99840688	     15.76611486	      0.00000000	     10.97307642	     -5.17578668	     -7.76919803
1760625395.52394104	      0.79379372	     -2.07082252	     -0.00549716	      0.16425734	      0.85733238	      0.00175833	     80.00000000	     -7.00000000	      0.00000000	     80.00000000	      1.39626340	      0.00000000	      0.00000000	      0.00000000	     80.00000000	     -7.00000000	      0.00000000	     80.00000000	      1.39626340	      0.00000000	      0.00000000	      0.00000000	     -6.83319180	     -0.40626307	      2.20120024	      3.37526706	     -5.86364920	     18.16832373	      0.00000000	      0.00000000	     -6.57178274	    -16.90577654	      5.40232463	     -6.00131622	     15.76569748	      0.00000000	     10.97258250	     -5.17641964	     -7.76955737
1760625395.53394103	      0.77595856	     -2.05870944	      0.00011834	      0.16409230	      0.85733106	      0.00171000	     80.00000000	     -7.00000000	      0.00000000	     80.00000000	      1.39626340	      0.00000000	      0.00000000	      0.00000000	     80.00000000	     -7.00000000	      0.00000000	     80.00000000	      1.39626340	      0.00000000	      0.00000000	      0.00000000	     -6.85682912	     -0.41854153	      2.20664010	      3.38961026	     -5.90754151	     18.17080077	      0.00000000	      0.00000000	     -6.57765974	    -16.91079663	      5.38485373	     -6.03502180	     15.76115236	      0.00000000	     10.96642435	     -5.18489605	     -7.77536637
1760625395.54394102	      0.77519296	     -2.05817921	      0.00012670	      0.16400923	      0.85735086	      0.00171756	     80.00000000	     -7.00000000	      0.00000000	     80.00000000	      1.39626340	      0.00000000	      0.00000000	      0.00000000	     80.00000000	     -7.00000000	      0.00000000	     80.00000000	      1.39626340	      0.00000000	      0.00000000	      0.00000000	     -6.85834673	     -0.42004195	      2.20648667	      3.38905094	     -5.91099934	     18.17087008	      0.00000000	      0.00000000	     -6.57817355	    -16.91118963	      5.38316152	     -6.03767992	     15.76074926	      0.00000000	     10.96588409	     -5.18562565	     -7.77586117
1760625395.55394101	      0.76546168	     -2.04630544	     -0.00274223	      0.16392500	      0.85728882	      0.00166767	     80.00000000	     -7.00000000	      0.00000000	     80.00000000	      1.39626340	      0.00000000	      0.00000000	      0.00000000	     80.00000000	     -7.00000000	      0.00000000	     80.00000000	      1.39626340	      0.00000000	      0.00000000	      0.00000000	     -6.87528562	     -0.43311231	      2.20311411	      3.39176624	     -5.95984201	     18.17271718	      0.00000000	      0.00000000	     -6.58436256	    -16.91628632	      5.37296472	     -6.08144758	     15.75694917	      0.00000000	     10.95992122	     -5.19491215	     -7.78217033
1760625395.56394100	      0.76129733	     -2.04062635	     -0.00223418	      0.16380843	      0.85727690	      0.00163725	     80.00000000	     -7.00000000	      0.00000000	     80.00000000	      1.39626340	      0.00000000	      0.00000000	      0.00000000	     80.00000000	     -7.00000000	      0.00000000	     80.00000000	      1.39626340	      0.00000000	      0.00000000	      0.00000000	     -6.88327678	     -0.43864932	      2.20326127	      3.39139620	     -5.96644578	     18.17315120	      0.00000000	      0.00000000	     -6.58713572	    -16.91852026	      5.36524447	     -6.08894494	     15.75461917	      0.00000000	     10.95679066	     -5.19911925	     -7.78468459
1760625395.57394099	      0.76166139	     -2.04109079	     -0.00316167	      0.16376514	      0.85730467	      0.00158509	     80.00000000	     -7.00000000	      0.00000000	     80.00000000	      1.39626340	      0.00000000	      0.00000000	      0.00000000	     80.00000000	     -7.00000000	      0.00000000	     80.00000000	      1.39626340	      0.00000000	      0.00000000	      0.00000000	     -6.88350837	     -0.44061936	      2.20240004	      3.39092682	     -5.96944664	     18.17331011	      0.00000000	      0.00000000	     -6.58764399	    -16.91896243	      5.36533878	     -6.09279577	     15.75431994	      0.00000000	     10.95628673	     -5.19986304	     -7.78514604
1760625395.58394098	      0.75420865	     -2.03196602	     -0.00129552	      0.16367313	      0.85723301	      0.00162632	     80.00000000	     -7.00000000	      0.00000000	     80.00000000	      1.39626340	      0.00000000	      0.00000000	      0.00000000	     80.00000000	     -7.00000000	      0.00000000	     80.00000000	      1.39626340	      0.00000000	      0.00000000	      0.00000000	     -6.89847964	     -0.45394369	      2.20145563	      3.38569779	     -6.01652784	     18.17581468	      0.00000000	      0.00000000	     -6.59365359	    -16.92444099	      5.35108382	     -6.13744933	     15.75047112	      0.00000000	     10.95042077	     -5.20857144	     -7.79086422
1760625395.59394097	      0.75437845	     -2.03312017	     -0.00119418	      0.16359192	      0.85731132	      0.00157146	     80.00000000	     -7.00000000	      0.00000000	     80.00000000	      1.39626340	      0.00000000	      0.00000000	      0.00000000	     80.00000000	     -7.00000000	      0.00000000	     80.00000000	      1.39626340	      0.00000000	      0.00000000	      0.00000000	     -6.89865369	     -0.45631745	      2.20146306	      3.38533846	     -6.01841600	     18.17588381	      0.00000000	      0.00000000	     -6.59407484	    -16.92479677	      5.34951824	     -6.13900687	     15.75012717	      0.00000000	     10.94997625	     -5.20915358	     -7.79120123
